<?xml version="1.0" standalone="no"?>
<!DOCTYPE svg PUBLIC "-//W3C//DTD SVG 20010904//EN"
 "http://www.w3.org/TR/2001/REC-SVG-20010904/DTD/svg10.dtd">
<svg version="1.0" xmlns="http://www.w3.org/2000/svg"
 width="260.000000pt" height="260.000000pt" viewBox="0 0 260.000000 260.000000"
 preserveAspectRatio="xMidYMid meet">
<metadata>
Created by potrace 1.11, written by Peter Selinger 2001-2013
</metadata>
<g transform="translate(0.000000,260.000000) scale(0.100000,-0.100000)"
fill="#000000" stroke="none">
<path d="M420 2288 c-50 -22 -87 -62 -105 -116 -9 -26 -12 -129 -11 -381 1
-377 -1 -363 61 -426 79 -81 209 -75 288 14 15 17 25 31 22 31 -3 0 0 10 6 23
7 12 14 54 16 92 5 88 5 48 2 360 -2 269 -2 270 -27 318 -48 90 -156 126 -252
85z"/>
<path d="M1278 2299 c-7 -4 -15 -6 -19 -3 -4 2 -29 -11 -55 -29 -36 -23 -56
-47 -76 -87 -15 -30 -31 -60 -36 -66 -5 -6 -13 -21 -17 -35 -4 -13 -18 -40
-30 -59 -11 -19 -27 -51 -35 -70 -8 -19 -16 -37 -19 -40 -3 -3 -20 -34 -37
-70 -85 -176 -165 -333 -177 -348 -6 -8 -13 -23 -14 -35 -2 -12 -7 -24 -11
-27 -11 -8 -192 -373 -192 -387 0 -7 -4 -13 -8 -13 -5 0 -17 -19 -28 -42 -10
-24 -29 -60 -41 -80 -13 -21 -21 -38 -18 -38 3 0 -16 -39 -42 -87 -52 -99 -56
-108 -72 -143 -6 -14 -15 -32 -20 -40 -13 -20 -24 -51 -26 -72 -2 -10 -4 -21
-5 -25 -3 -10 -3 -11 4 -53 8 -56 34 -98 79 -129 35 -23 52 -29 100 -29 33 0
72 7 87 15 39 19 96 80 111 117 7 17 22 45 33 61 12 17 20 31 18 33 -3 3 119
253 128 262 8 8 80 155 80 163 0 4 11 25 25 47 14 22 22 40 19 40 -4 0 -2 6 4
13 14 18 101 187 96 187 -2 0 6 17 19 38 12 20 62 117 111 215 49 97 92 177
95 177 6 -1 57 -102 75 -150 5 -14 12 -27 15 -30 10 -8 133 -258 131 -266 -1
-4 2 -10 7 -13 4 -3 100 -188 211 -411 112 -223 213 -417 225 -431 75 -89 182
-104 271 -39 22 17 36 30 30 30 -5 0 0 7 10 15 11 8 16 15 12 15 -5 0 -3 7 5
16 8 9 13 41 12 79 0 60 -5 73 -118 296 -64 129 -121 241 -126 249 -4 8 -38
76 -75 150 -548 1101 -553 1110 -625 1126 -43 9 -79 10 -91 3z"/>
<path d="M1000 683 c0 -4 -16 -9 -36 -10 -20 -1 -44 -9 -53 -17 -10 -9 -22
-16 -27 -16 -10 0 -62 -72 -54 -75 3 -1 -1 -9 -8 -18 -31 -37 -1 -166 47 -204
37 -30 60 -44 82 -49 39 -10 692 -9 714 0 11 5 26 10 34 12 7 1 24 13 38 26
125 118 71 317 -94 344 -55 9 -594 10 -600 1 -2 -4 -13 -2 -24 3 -10 6 -19 7
-19 3z"/>
</g>
</svg>
